<svg xmlns="http://www.w3.org/2000/svg" xmlns:xlink="http://www.w3.org/1999/xlink" viewBox="0 0 4912.57 1080"><defs><style>.a{fill:url(#a);}</style><linearGradient id="a" x1="2455.09" y1="50.22" x2="2455.09" y2="1074.67" gradientUnits="userSpaceOnUse"><stop offset="0" stop-color="#ffff"/><stop offset="1" stop-color="#ffff"/></linearGradient></defs><path class="a" d="M4591.51,237.14A462.36,462.36,0,0,1,4794,298.52l94.11-206.71A601.78,601.78,0,0,0,4588.9,17.35a423.86,423.86,0,0,0-186.17,40A298.25,298.25,0,0,0,4228.43,334a309.39,309.39,0,0,0,36.83,149.63,454.18,454.18,0,0,0,118.36,133.67q66.82,55.68,82.12,72.05a145.23,145.23,0,0,1,23.65,32.73,76.19,76.19,0,0,1,8.18,35.15,74.57,74.57,0,0,1-26.43,61.37,121,121,0,0,1-77.74,21.56,438.28,438.28,0,0,1-136.74-25c-17.88-5.93-34.73-12.52-51.14-19.43L4141.08,31.83h-350l-386.2,758.9-72.74-167.39A312.41,312.41,0,0,0,3479,500.19a355.28,355.28,0,0,0,49.55-189.28,244.59,244.59,0,0,0-93.29-209.48q-93.28-69.56-268.61-69.56H2897.3L2793.13,524.66a915.8,915.8,0,0,0,7.57-117,396.21,396.21,0,0,0-100.53-288.45A374.65,374.65,0,0,0,2418.68,15.83a507.43,507.43,0,0,0-285,81.06,549.4,549.4,0,0,0-195.2,235.59,747.77,747.77,0,0,0-42,114.56l88-415.21H1711.87L1634.13,409H1391.62l77.74-377.2H1197.28L183.56,259.36h965.85L1119.5,400.93,115.93,626.29h955.9L1030.3,822.68,22.07,1049.23H1254.56l88.37-414.76h240.79l-87,414.76h272.13l107.4-506.53a876.74,876.74,0,0,0-9.37,128.68,393.17,393.17,0,0,0,102,288.08q101.88,103.8,289.11,103.8a494.61,494.61,0,0,0,282.52-81.83,544.11,544.11,0,0,0,191-235.26A750.66,750.66,0,0,0,2766,653l-83.75,396.26h272.13L3033,679h50.73l135.72,370.24h336.32l87-190.67h311.78l6.95,190.67h423.35s217.14,0,285.34-72A332.05,332.05,0,0,0,4772.48,736.8a294.27,294.27,0,0,0-39.65-153.1A446.34,446.34,0,0,0,4611,456.33a516.11,516.11,0,0,1-88.74-79A100.77,100.77,0,0,1,4499,313.7a69.2,69.2,0,0,1,24-57,106.41,106.41,0,0,1,68.53-19.47M2493.35,624.73a395.2,395.2,0,0,1-89.08,155.89,170.19,170.19,0,0,1-122.74,57.73q-139.11,0-139.11-168.41a651.74,651.74,0,0,1,34.45-209.44,411.64,411.64,0,0,1,92.22-160.76,175.27,175.27,0,0,1,126.84-58.46,113.15,113.15,0,0,1,96.72,45A204.23,204.23,0,0,1,2526,410.5a680.52,680.52,0,0,1-32.37,214.32M3217.54,434.4a144.11,144.11,0,0,1-105.07,37.92H3077l48.73-232.43h36.82a98.17,98.17,0,0,1,69.93,22.62,85.92,85.92,0,0,1,24,65.79,141.13,141.13,0,0,1-38.95,106.1m524.94,207,151-330.56A763.92,763.92,0,0,0,3936,195.37q-2.82,39-2.78,91.16l1.39,59.86,11.83,295Z"/></svg>